HIERARCHY
ROOT Hips
{
	OFFSET 0.000000 0.000000 0.000000
	CHANNELS 6 Xposition Yposition Zposition Zrotation Yrotation Xrotation 
	JOINT LHipJoint
	{
		OFFSET 0.000000 0.000000 0.000000
		CHANNELS 3 Zrotation Yrotation Xrotation
		JOINT LeftUpLeg
		{
			OFFSET 8.178360 -10.767780 5.035740
			CHANNELS 3 Zrotation Yrotation Xrotation
			JOINT LeftLeg
			{
				OFFSET 14.688660 -40.356780 0.000000
				CHANNELS 3 Zrotation Yrotation Xrotation
				JOINT LeftFoot
				{
					OFFSET 15.373200 -42.237540 0.000000
					CHANNELS 3 Zrotation Yrotation Xrotation
					JOINT LeftToeBase
					{
						OFFSET 0.945840 -2.598660 13.935300
						CHANNELS 3 Zrotation Yrotation Xrotation
						End Site
						{
							OFFSET 0.000000 0.000000 0.000000
						}
					}
				}
			}
		}
	}
	JOINT RHipJoint
	{
		OFFSET 0.000000 0.000000 0.000000
		CHANNELS 3 Zrotation Yrotation Xrotation
		JOINT RightUpLeg
		{
			OFFSET -7.833120 -10.767780 5.035740
			CHANNELS 3 Zrotation Yrotation Xrotation
			JOINT RightLeg
			{
				OFFSET -15.255180 -41.913300 0.000000
				CHANNELS 3 Zrotation Yrotation Xrotation
				JOINT RightFoot
				{
					OFFSET -15.409560 -42.337380 0.000000
					CHANNELS 3 Zrotation Yrotation Xrotation
					JOINT RightToeBase
					{
						OFFSET -0.988380 -2.715540 14.178900
						CHANNELS 3 Zrotation Yrotation Xrotation
						End Site
						{
							OFFSET 0.000000 0.000000 0.000000
						}
					}
				}
			}
		}
	}
	JOINT LowerBack
	{
		OFFSET 0.000000 0.000000 0.000000
		CHANNELS 3 Zrotation Yrotation Xrotation
		JOINT Spine
		{
			OFFSET 0.169620 12.213540 -1.160280
			CHANNELS 3 Zrotation Yrotation Xrotation
			JOINT Spine1
			{
				OFFSET 0.340320 12.293100 -0.256500
				CHANNELS 3 Zrotation Yrotation Xrotation
				JOINT Neck
				{
					OFFSET 0.000000 0.000000 0.000000
					CHANNELS 3 Zrotation Yrotation Xrotation
					JOINT Neck1
					{
						OFFSET -0.325020 10.477440 1.032120
						CHANNELS 3 Zrotation Yrotation Xrotation
						JOINT Head
						{
							OFFSET 0.624420 10.568160 -0.743820
							CHANNELS 3 Zrotation Yrotation Xrotation
							End Site
							{
								OFFSET 0.000000 0.000000 0.000000
							}
						}
					}
				}
				JOINT LeftShoulder
				{
					OFFSET 0.000000 0.000000 0.000000
					CHANNELS 3 Zrotation Yrotation Xrotation
					JOINT LeftArm
					{
						OFFSET 20.174460 7.205340 -1.867260
						CHANNELS 3 Zrotation Yrotation Xrotation
						JOINT LeftForeArm
						{
							OFFSET 29.898000 -0.000000 -0.000000
							CHANNELS 3 Zrotation Yrotation Xrotation
							JOINT LeftHand
							{
								OFFSET 20.901360 -0.000000 -0.000000
								CHANNELS 3 Zrotation Yrotation Xrotation
								JOINT LeftFingerBase
								{
									OFFSET 0.000000 0.000000 0.000000
									CHANNELS 3 Zrotation Yrotation Xrotation
									JOINT LeftHandIndex1
									{
										OFFSET 4.291560 -0.000000 -0.000000
										CHANNELS 3 Zrotation Yrotation Xrotation
										End Site
										{
											OFFSET 0.000000 0.000000 0.000000
										}
									}
								}
								JOINT LThumb
								{
									OFFSET 0.000000 0.000000 0.000000
									CHANNELS 3 Zrotation Yrotation Xrotation
									End Site
									{
										OFFSET 0.000000 0.000000 0.000000
									}
								}
							}
						}
					}
				}
				JOINT RightShoulder
				{
					OFFSET 0.000000 0.000000 0.000000
					CHANNELS 3 Zrotation Yrotation Xrotation
					JOINT RightArm
					{
						OFFSET -18.819600 8.244300 -2.427900
						CHANNELS 3 Zrotation Yrotation Xrotation
						JOINT RightForeArm
						{
							OFFSET -31.451400 -0.000000 -0.000000
							CHANNELS 3 Zrotation Yrotation Xrotation
							JOINT RightHand
							{
								OFFSET -20.665020 -0.000000 -0.000000
								CHANNELS 3 Zrotation Yrotation Xrotation
								JOINT RightFingerBase
								{
									OFFSET 0.000000 0.000000 0.000000
									CHANNELS 3 Zrotation Yrotation Xrotation
									JOINT RightHandIndex1
									{
										OFFSET -3.735180 -0.000000 -0.000000
										CHANNELS 3 Zrotation Yrotation Xrotation
										End Site
										{
											OFFSET 0.000000 0.000000 0.000000
										}
									}
								}
								JOINT RThumb
								{
									OFFSET 0.000000 0.000000 0.000000
									CHANNELS 3 Zrotation Yrotation Xrotation
									End Site
									{
										OFFSET 0.000000 0.000000 0.000000
									}
								}
							}
						}
					}
				}
			}
		}
	}
}
MOTION
Frames:	7
Frame Time:	0.0333333
19.432416 106.857672 -57.465078 -179.025549 20.500253 178.981903 -2.145874 1.405876 2.004572 -14.919104 -8.062466 -13.163406 1.980736 10.431387 31.779668 0.883381 -5.769321 -7.106292 0.735700 -5.479800 -15.282200 0.207909 -1.330326 1.102806 19.449739 3.951796 -11.072513 -2.426478 -9.563397 29.322334 -0.483677 1.212606 -5.200914 -0.292600 3.478200 -9.613200 1.599613 1.144797 11.283059 1.389036 1.991480 1.788248 -1.577417 0.987862 -6.073196 -12.403743 -8.678476 -13.431442 6.892663 -8.862860 25.629858 4.374300 -3.853600 16.138900 -6.219328 -0.722238 -1.554854 -84.397345 2.623173 22.538186 17.889343 -25.000904 -4.694325 -1.083984 -1.972515 8.129044 19.009794 20.987864 8.048500 -7.125000 0.000000 0.000000 -9.788900 54.103700 -2.206500 4.970597 1.559352 -0.845629 79.449002 -0.882846 6.434171 -18.914082 27.405160 -4.714042 0.464280 -0.126423 2.650542 -20.352874 8.528680 -3.260300 7.125000 0.000000 0.000000 4.370600 -20.785500 2.542400 
20.654976 106.590444 -58.331928 -179.088322 21.232236 179.270895 -2.254631 1.205631 1.950710 -17.368667 -4.686920 -15.616872 1.461973 9.672872 29.237668 0.941200 -7.021396 -6.149918 0.732700 -5.468900 -15.250800 0.240035 -1.265541 1.103175 19.837233 3.903181 -11.253442 -2.635497 -9.871386 30.398187 -0.652610 1.971826 -6.158564 -0.250800 3.222200 -8.897900 1.552841 1.134533 10.792818 1.470431 1.943252 1.822421 -1.362166 0.982813 -5.719533 -12.138163 -8.641870 -14.132125 6.507615 -8.782252 25.985464 4.160000 -3.828200 16.437300 -6.219250 -0.736144 -1.555732 -84.432252 2.463207 23.187695 17.800719 -24.884567 -4.654829 -1.112391 -1.935115 7.579042 19.608612 20.319642 8.092900 -7.125000 0.000000 0.000000 -8.847100 53.500200 -1.860800 4.983442 1.532818 -0.855086 79.165106 -0.722958 6.190456 -18.890944 27.383970 -4.700810 0.469082 -0.125567 2.671772 -20.515078 8.501310 -3.277900 7.125000 0.000000 0.000000 4.249900 -20.805700 2.469900 
21.813570 106.449354 -59.055900 -178.716984 21.028037 179.530030 -2.341387 1.107302 1.897729 -18.834588 -3.865332 -16.676396 1.056737 9.023547 27.157560 0.898861 -7.455955 -4.992448 0.443200 -4.271300 -11.841300 0.270593 -1.236954 1.117955 20.690917 3.379213 -11.067213 -2.709845 -9.958273 30.753327 -0.738366 2.230267 -7.015732 -0.268200 3.331300 -9.202400 1.740086 0.847199 10.733289 1.651834 1.583174 1.758323 -1.060625 0.806634 -5.789104 -12.195949 -8.575935 -13.811179 6.689702 -8.734403 25.759540 4.253100 -3.804000 16.240600 -6.203370 -0.713574 -1.562046 -84.404633 2.672038 23.751709 17.821739 -24.925427 -4.672374 -1.119674 -1.967133 7.030596 19.867310 20.625888 8.325700 -7.125000 0.000000 0.000000 -8.685100 53.890700 -1.909400 4.995556 1.540626 -0.851777 79.052794 -0.925762 5.762115 -18.796393 27.262804 -4.652452 0.465055 -0.129731 3.207128 -20.443518 8.431342 -3.238900 7.125000 0.000000 0.000000 4.302800 -20.884500 2.493100 
22.987104 106.337562 -59.907804 -177.967705 20.299665 179.514744 -2.366325 1.122596 1.873795 -18.877488 -5.138222 -16.199083 0.964609 8.796533 26.542249 0.855615 -9.172288 -2.291138 0.022100 -0.959900 -2.638400 0.269776 -1.255174 1.131957 22.028261 2.411350 -10.099133 -2.672051 -9.856597 30.503380 -0.768206 2.324726 -7.331844 -0.081300 1.839300 -5.061900 2.012570 0.494669 10.597962 1.962070 1.165437 1.797180 -0.601262 0.598504 -5.659215 -12.057476 -8.643627 -13.519876 6.705071 -8.882860 25.911777 4.214300 -3.832200 16.235100 -6.190962 -0.714320 -1.548854 -84.321453 2.686879 24.566802 17.655365 -24.716352 -4.590359 -1.131929 -2.008410 6.297564 20.107935 20.998409 8.583300 -7.125000 0.000000 0.000000 -8.557800 54.354000 -1.978100 5.016169 1.525361 -0.862959 78.882925 -1.776463 6.360984 -19.131040 27.686826 -4.820279 0.459327 -0.110549 2.464308 -20.106541 8.206419 -3.092900 7.125000 0.000000 0.000000 4.550000 -21.157900 2.609100 
24.212658 106.226964 -60.637152 -177.402611 19.715293 179.976529 -2.365348 1.204539 1.854145 -17.765588 -7.753659 -14.942516 1.067746 9.014751 27.253801 0.676580 -6.918456 -2.120012 0.017600 0.856900 2.355300 0.243452 -1.303501 1.156792 23.219120 1.919483 -9.891211 -2.697792 -9.885819 30.630070 -0.734450 2.183893 -7.207519 -0.001300 0.235000 -0.645700 1.394527 0.342622 10.120437 2.297015 0.856565 1.598264 0.426314 0.442675 -5.734610 -12.009932 -8.890342 -13.438160 6.826842 -9.198584 26.725902 4.247300 -3.884000 16.689200 -6.160538 -0.716324 -1.550614 -84.188306 2.871863 24.970218 17.633122 -24.711115 -4.594410 -1.139448 -1.931075 6.808259 20.159726 20.124896 8.278000 -7.125000 0.000000 0.000000 -8.153500 53.396700 -1.692600 5.054198 1.507515 -0.882030 79.064007 -2.500168 5.699680 -18.956268 27.461137 -4.730513 0.447000 -0.138589 3.774672 -19.905253 8.746631 -3.263000 7.125000 0.000000 0.000000 4.705600 -20.578700 2.760600 
25.497390 106.039842 -61.242756 -176.818464 19.362671 -179.635144 -2.302943 1.179723 1.878636 -16.280566 -6.927098 -15.588708 1.267694 9.295623 28.112665 0.907689 -9.640694 -2.138919 0.013700 -0.755800 -2.077200 0.211660 -1.313188 1.160614 24.413107 1.304018 -9.907302 -2.794073 -10.016905 31.103546 -0.848843 2.521142 -8.225779 -0.000000 -0.006500 0.017700 0.482215 0.305396 10.139026 2.594348 0.672299 1.331433 1.544092 0.369788 -6.219347 -11.852419 -9.071911 -12.950969 7.042125 -9.520009 27.126623 4.289400 -3.924900 16.823300 -6.129882 -0.720920 -1.548467 -83.780488 2.974194 25.044165 17.474744 -24.531571 -4.514218 -1.140287 -1.964552 6.784753 19.990841 20.704697 8.416200 -7.125000 0.000000 0.000000 -8.556000 53.992400 -1.902000 5.101866 1.520048 -0.902744 79.545232 -3.405305 5.002905 -18.809246 27.260518 -4.654787 0.429418 -0.171984 4.922295 -19.575425 9.534170 -3.494900 7.125000 0.000000 0.000000 4.959100 -19.741400 3.003700 
26.710980 105.861096 -61.844172 -177.063533 19.218972 -179.484352 -2.274094 1.180466 1.888781 -15.804922 -6.943921 -15.537650 1.387725 9.450067 28.618421 1.012768 -10.904912 -2.498015 0.024400 -1.008300 -2.771700 0.208757 -1.322801 1.167657 24.450172 0.589960 -10.366925 -3.002620 -10.334228 32.137356 -1.068064 3.294047 -9.556694 -0.007000 0.538900 -1.480800 -0.737486 0.354960 9.912451 2.475479 0.545640 1.251946 2.136826 0.324436 -6.212785 -11.627572 -9.599515 -13.271193 7.312919 -10.405914 27.429076 4.225900 -4.176500 17.217000 -6.120526 -0.697032 -1.543525 -82.911873 2.995333 24.759993 17.396715 -24.486902 -4.477578 -1.151680 -1.970458 6.491933 20.201136 20.903713 8.586100 -7.125000 0.000000 0.000000 -8.395000 54.241300 -1.916900 5.116752 1.542525 -0.918870 81.042672 -4.053364 3.107886 -18.776960 27.219577 -4.635572 0.427505 -0.193201 5.740117 -19.773641 10.001062 -3.706700 7.125000 0.000000 0.000000 4.822900 -19.218700 2.977100 
